<svg width="18" height="18" viewBox="0 0 18 18" fill="none" xmlns="http://www.w3.org/2000/svg">
<g opacity="0.6">
<path d="M1 5C1 2.79086 2.79086 1 5 1H13C15.2091 1 17 2.79086 17 5V13C17 15.2091 15.2091 17 13 17H5C2.79086 17 1 15.2091 1 13V5Z" fill="#9B2EFF"/>
<path d="M1 5C1 2.79086 2.79086 1 5 1H13C15.2091 1 17 2.79086 17 5V13C17 15.2091 15.2091 17 13 17H5C2.79086 17 1 15.2091 1 13V5Z" stroke="#6E1BDC" stroke-width="2"/>
<path fill-rule="evenodd" clip-rule="evenodd" d="M14.1455 5.53593C14.4019 5.80018 14.3955 6.22224 14.1312 6.47863L7.94723 12.4786C7.68861 12.7296 7.27741 12.7296 7.01878 12.4787L3.86945 9.42332C3.60519 9.16695 3.59879 8.74488 3.85517 8.48062C4.11154 8.21636 4.53361 8.20996 4.79787 8.46634L7.48297 11.0713L13.2028 5.52169C13.467 5.26531 13.8891 5.27168 14.1455 5.53593Z" fill="white"/>
</g>
</svg>
